<?xml version="1.0" encoding="utf-8"?>
<!-- Generator: Adobe Illustrator 24.0.0, SVG Export Plug-In . SVG Version: 6.00 Build 0)  -->
<svg version="1.2" baseProfile="tiny" id="Layer_1" xmlns="http://www.w3.org/2000/svg" xmlns:xlink="http://www.w3.org/1999/xlink"
	 x="0px" y="0px" viewBox="0 0 631 101" xml:space="preserve">
<g>
	<path fill="#4286F3" d="M0.38,27.06h12.05v5.78h0.78c1.18-2.02,3-3.76,5.49-5.19c2.48-1.44,5.55-2.16,9.21-2.16
		c3.07,0,5.99,0.64,8.77,1.91c2.78,1.27,5.23,3.04,7.35,5.29c2.12,2.25,3.81,4.95,5.05,8.08c1.24,3.14,1.86,6.57,1.86,10.29
		c0,3.72-0.62,7.15-1.86,10.29c-1.24,3.14-2.92,5.83-5.05,8.09c-2.12,2.25-4.57,4.02-7.35,5.29c-2.78,1.27-5.7,1.91-8.77,1.91
		c-3.66,0-6.73-0.72-9.21-2.16c-2.48-1.44-4.31-3.17-5.49-5.19h-0.78l0.78,6.86v20.09H0.38V27.06z M25.27,64.79
		c1.7,0,3.32-0.33,4.85-0.98c1.53-0.65,2.89-1.57,4.07-2.74c1.18-1.18,2.12-2.61,2.84-4.31c0.72-1.7,1.08-3.59,1.08-5.68
		c0-2.09-0.36-3.98-1.08-5.68c-0.72-1.7-1.67-3.14-2.84-4.31c-1.18-1.18-2.53-2.09-4.07-2.74c-1.54-0.65-3.15-0.98-4.85-0.98
		c-1.7,0-3.32,0.31-4.85,0.93c-1.54,0.62-2.89,1.52-4.07,2.69c-1.18,1.18-2.12,2.61-2.84,4.31c-0.72,1.7-1.08,3.63-1.08,5.78
		c0,2.16,0.36,4.08,1.08,5.78c0.72,1.7,1.67,3.14,2.84,4.31c1.18,1.18,2.53,2.07,4.07,2.69C21.96,64.48,23.58,64.79,25.27,64.79z"/>
	<path fill="#4286F3" d="M58.69,27.06h12.05v6.66h0.78c0.59-1.18,1.37-2.25,2.35-3.23s2.07-1.83,3.28-2.56
		c1.21-0.73,2.51-1.32,3.92-1.76c1.4-0.45,2.79-0.67,4.17-0.67c1.7,0,3.15,0.18,4.36,0.54c1.21,0.36,2.24,0.83,3.09,1.42
		l-3.43,11.47c-0.78-0.39-1.65-0.7-2.6-0.93c-0.95-0.23-2.11-0.34-3.48-0.34c-1.76,0-3.37,0.35-4.8,1.04
		c-1.44,0.69-2.66,1.66-3.67,2.91c-1.01,1.25-1.8,2.71-2.35,4.38c-0.56,1.67-0.83,3.5-0.83,5.47v23.64H58.69V27.06z"/>
	<path fill="#4286F3" d="M118.38,25.49c3.72,0,7.14,0.64,10.24,1.91c3.1,1.27,5.78,3.04,8.04,5.29c2.25,2.25,4.02,4.95,5.29,8.08
		c1.27,3.14,1.91,6.57,1.91,10.29c0,3.72-0.64,7.15-1.91,10.29c-1.27,3.14-3.04,5.83-5.29,8.09c-2.25,2.25-4.93,4.02-8.04,5.29
		c-3.1,1.27-6.52,1.91-10.24,1.91s-7.14-0.64-10.24-1.91c-3.1-1.27-5.78-3.04-8.04-5.29c-2.25-2.25-4.02-4.95-5.29-8.09
		c-1.27-3.14-1.91-6.57-1.91-10.29c0-3.72,0.64-7.15,1.91-10.29c1.27-3.14,3.04-5.83,5.29-8.08c2.25-2.25,4.93-4.02,8.04-5.29
		C111.24,26.13,114.65,25.49,118.38,25.49z M118.38,64.79c1.63,0,3.22-0.31,4.75-0.93c1.53-0.62,2.89-1.52,4.07-2.69
		c1.18-1.18,2.11-2.61,2.79-4.31c0.69-1.7,1.03-3.63,1.03-5.78c0-2.16-0.34-4.08-1.03-5.78c-0.69-1.7-1.62-3.14-2.79-4.31
		c-1.18-1.18-2.53-2.07-4.07-2.69c-1.54-0.62-3.12-0.93-4.75-0.93c-1.7,0-3.3,0.31-4.8,0.93c-1.5,0.62-2.84,1.52-4.02,2.69
		c-1.18,1.18-2.11,2.61-2.79,4.31c-0.69,1.7-1.03,3.63-1.03,5.78c0,2.16,0.34,4.08,1.03,5.78c0.69,1.7,1.62,3.14,2.79,4.31
		c1.18,1.18,2.51,2.07,4.02,2.69C115.08,64.48,116.68,64.79,118.38,64.79z"/>
	<path fill="#4286F3" d="M163.06,50.67L146.6,27.06h15.19l8.72,13.33h0.69l8.23-13.33h15.68l-16.86,23.62l16.86,24.4h-15.09
		L171,61.36h-0.69l-8.72,13.72H146.4L163.06,50.67z"/>
	<path fill="#4286F3" d="M216.57,72.72l-20.19-45.67h14.6l12.15,29.11h0.69l11.66-29.11h14.31l-30.09,69.19h-13.82L216.57,72.72z"/>
	<path fill="#FFFFFF" d="M256.55,75.08c-2.35,0-4.36-0.8-6.03-2.41s-2.5-3.55-2.5-5.82c0-2.27,0.83-4.19,2.5-5.77
		c1.67-1.58,3.67-2.37,6.03-2.37s4.34,0.79,5.98,2.37c1.63,1.58,2.45,3.5,2.45,5.77c0,2.27-0.82,4.21-2.45,5.82
		C260.9,74.27,258.91,75.08,256.55,75.08z"/>
	<path fill="#EA4333" d="M320.74,62.83c-2.09,4.05-5.02,7.37-8.77,9.95c-3.76,2.58-8.44,3.87-14.06,3.87
		c-3.72,0-7.14-0.64-10.24-1.91c-3.1-1.27-5.78-3.05-8.04-5.34c-2.25-2.29-4.02-4.98-5.29-8.08c-1.27-3.1-1.91-6.52-1.91-10.24
		c0-3.72,0.64-7.15,1.91-10.29c1.27-3.14,3.04-5.83,5.29-8.08c2.25-2.25,4.93-4.02,8.04-5.29c3.1-1.27,6.52-1.91,10.24-1.91
		c5.55,0,10.22,1.27,14.01,3.82c3.79,2.55,6.57,5.85,8.33,9.9l-11.76,4.9c-1.11-2.22-2.53-3.9-4.26-5.05
		c-1.73-1.14-3.9-1.71-6.52-1.71c-1.7,0-3.3,0.33-4.8,0.98c-1.5,0.65-2.83,1.57-3.97,2.74c-1.14,1.18-2.04,2.61-2.69,4.31
		c-0.65,1.7-0.98,3.59-0.98,5.68c0,2.09,0.33,3.99,0.98,5.68c0.65,1.7,1.55,3.14,2.69,4.31c1.14,1.18,2.47,2.09,3.97,2.74
		c1.5,0.65,3.1,0.98,4.8,0.98c2.68,0,4.95-0.6,6.81-1.81c1.86-1.21,3.35-2.96,4.46-5.24L320.74,62.83z"/>
	<path fill="#EA4333" d="M352.3,4.12c1.83,0,3.53,0.16,5.1,0.49c1.57,0.33,2.97,0.75,4.21,1.27l-3.63,11.47
		c-0.65-0.33-1.36-0.59-2.11-0.78c-0.75-0.2-1.68-0.29-2.79-0.29c-1.9,0-3.4,0.6-4.51,1.81c-1.11,1.21-1.67,2.89-1.67,5.05v3.92
		h11.96v10.98h-11.96v37.04h-12.84V38.03h-8.62V27.06h8.62v-4.7c0-2.94,0.44-5.54,1.32-7.79c0.88-2.25,2.14-4.15,3.77-5.68
		c1.63-1.53,3.56-2.71,5.78-3.53C347.17,4.53,349.62,4.12,352.3,4.12z"/>
	<path fill="#EA4333" d="M382.48,75.08V23.14l-11.86,5l-4.7-10.88l19.7-9.21h9.7v67.03H382.48z"/>
	<path fill="#EA4333" d="M409.04,75.08V63.41c3.85-3.79,7.41-7.32,10.68-10.58c1.37-1.37,2.78-2.78,4.21-4.21
		c1.44-1.44,2.78-2.78,4.02-4.02c1.24-1.24,2.35-2.37,3.33-3.38c0.98-1.01,1.73-1.81,2.25-2.4c1.04-1.24,1.98-2.35,2.79-3.33
		c0.82-0.98,1.47-1.94,1.96-2.89c0.49-0.95,0.87-1.89,1.13-2.84c0.26-0.95,0.39-1.98,0.39-3.09c0-2.16-0.85-4.03-2.55-5.63
		c-1.7-1.6-4.02-2.4-6.96-2.4c-2.94,0-5.23,0.83-6.86,2.5c-1.63,1.67-2.74,3.54-3.33,5.64l-11.66-4.8c0.52-1.76,1.37-3.58,2.55-5.44
		c1.18-1.86,2.68-3.53,4.51-5c1.83-1.47,4-2.68,6.52-3.63c2.51-0.95,5.34-1.42,8.48-1.42c3.4,0,6.47,0.51,9.21,1.52
		c2.74,1.01,5.06,2.4,6.96,4.17c1.89,1.76,3.36,3.84,4.41,6.22c1.04,2.39,1.57,4.95,1.57,7.69c0,4.18-1.03,8.02-3.09,11.52
		c-2.06,3.5-4.56,6.75-7.5,9.75l-8.43,8.43c-2.22,2.22-4.74,4.7-7.55,7.45l0.39,0.59h27.15v11.27H409.04z"/>
	<path fill="#FFFFFF" d="M471.17,75.08c-2.35,0-4.36-0.8-6.03-2.41s-2.5-3.55-2.5-5.82c0-2.27,0.83-4.19,2.5-5.77
		c1.67-1.58,3.67-2.37,6.03-2.37c2.35,0,4.34,0.79,5.98,2.37c1.63,1.58,2.45,3.5,2.45,5.77c0,2.27-0.82,4.21-2.45,5.82
		C475.52,74.27,473.52,75.08,471.17,75.08z"/>
	<path fill="#FBBE04" d="M512.53,25.49c3.72,0,7.14,0.64,10.24,1.91c3.1,1.27,5.78,3.04,8.04,5.29c2.25,2.25,4.02,4.95,5.29,8.08
		c1.27,3.14,1.91,6.57,1.91,10.29c0,3.72-0.64,7.15-1.91,10.29c-1.27,3.14-3.04,5.83-5.29,8.09c-2.25,2.25-4.93,4.02-8.04,5.29
		c-3.1,1.27-6.52,1.91-10.24,1.91c-3.72,0-7.14-0.64-10.24-1.91c-3.1-1.27-5.78-3.04-8.04-5.29c-2.25-2.25-4.02-4.95-5.29-8.09
		c-1.27-3.14-1.91-6.57-1.91-10.29c0-3.72,0.64-7.15,1.91-10.29c1.27-3.14,3.04-5.83,5.29-8.08c2.25-2.25,4.93-4.02,8.04-5.29
		C505.39,26.13,508.8,25.49,512.53,25.49z M512.53,64.79c1.63,0,3.22-0.31,4.75-0.93c1.54-0.62,2.89-1.52,4.07-2.69
		s2.11-2.61,2.79-4.31c0.69-1.7,1.03-3.63,1.03-5.78c0-2.16-0.34-4.08-1.03-5.78c-0.69-1.7-1.62-3.14-2.79-4.31
		s-2.53-2.07-4.07-2.69c-1.54-0.62-3.12-0.93-4.75-0.93c-1.7,0-3.3,0.31-4.8,0.93c-1.5,0.62-2.84,1.52-4.02,2.69
		c-1.18,1.18-2.11,2.61-2.79,4.31c-0.69,1.7-1.03,3.63-1.03,5.78c0,2.16,0.34,4.08,1.03,5.78c0.69,1.7,1.62,3.14,2.79,4.31
		c1.18,1.18,2.51,2.07,4.02,2.69C509.23,64.48,510.83,64.79,512.53,64.79z"/>
	<path fill="#FBBE04" d="M545.26,27.06h12.05v6.66h0.78c0.59-1.18,1.37-2.25,2.35-3.23c0.98-0.98,2.07-1.83,3.28-2.56
		c1.21-0.73,2.51-1.32,3.92-1.76c1.4-0.45,2.79-0.67,4.17-0.67c1.7,0,3.15,0.18,4.36,0.54c1.21,0.36,2.24,0.83,3.09,1.42
		l-3.43,11.47c-0.78-0.39-1.65-0.7-2.6-0.93c-0.95-0.23-2.11-0.34-3.48-0.34c-1.76,0-3.37,0.35-4.8,1.04
		c-1.44,0.69-2.66,1.66-3.67,2.91c-1.01,1.25-1.8,2.71-2.35,4.38c-0.56,1.67-0.83,3.5-0.83,5.47v23.64h-12.84V27.06z"/>
	<path fill="#FBBE04" d="M604.84,97.81c-3.4,0-6.42-0.44-9.06-1.32c-2.65-0.88-4.95-2.03-6.91-3.43c-1.96-1.41-3.59-2.96-4.9-4.66
		c-1.31-1.7-2.25-3.4-2.84-5.1l12.25-4.9c0.91,2.55,2.42,4.52,4.51,5.93c2.09,1.4,4.41,2.11,6.96,2.11c4.05,0,7.25-1.32,9.6-3.94
		c2.35-2.63,3.53-6.25,3.53-10.85v-3.33h-0.78c-1.5,2.09-3.48,3.74-5.93,4.95c-2.45,1.21-5.34,1.81-8.67,1.81
		c-2.88,0-5.67-0.58-8.38-1.75c-2.71-1.16-5.11-2.83-7.2-5c-2.09-2.17-3.79-4.77-5.1-7.81c-1.31-3.04-1.96-6.44-1.96-10.19
		s0.65-7.16,1.96-10.24c1.31-3.07,3-5.69,5.1-7.86c2.09-2.17,4.49-3.83,7.2-5c2.71-1.16,5.5-1.75,8.38-1.75
		c3.33,0,6.22,0.6,8.67,1.81c2.45,1.21,4.43,2.86,5.93,4.95h0.78v-5.19h12.25v44.59c0,4.05-0.62,7.69-1.86,10.93
		c-1.24,3.23-2.97,5.98-5.19,8.23c-2.22,2.25-4.88,3.98-7.99,5.19C612.08,97.21,608.63,97.81,604.84,97.81z M605.33,63.51
		c1.57,0,3.12-0.29,4.66-0.87c1.53-0.58,2.89-1.43,4.07-2.55c1.18-1.12,2.12-2.5,2.84-4.14c0.72-1.64,1.08-3.51,1.08-5.63
		c0-2.12-0.36-4.01-1.08-5.68c-0.72-1.67-1.67-3.06-2.84-4.19c-1.18-1.12-2.53-1.97-4.07-2.55c-1.54-0.58-3.09-0.87-4.66-0.87
		s-3.1,0.29-4.61,0.87s-2.84,1.44-4.02,2.6c-1.18,1.15-2.12,2.55-2.84,4.19c-0.72,1.64-1.08,3.51-1.08,5.63c0,2.12,0.36,4,1.08,5.63
		c0.72,1.64,1.67,3.02,2.84,4.14c1.18,1.12,2.51,1.97,4.02,2.55S603.76,63.51,605.33,63.51z"/>
</g>
<g>
</g>
<g>
</g>
<g>
</g>
<g>
</g>
<g>
</g>
<g>
</g>
<g>
</g>
<g>
</g>
<g>
</g>
<g>
</g>
<g>
</g>
</svg>
